<svg width="512" height="706" viewBox="0 0 512 706" fill="none" xmlns="http://www.w3.org/2000/svg">
<path d="M510.5 1.5V171.526C510.5 225.926 466.4 270.026 412 270.026H100C45.6 270.026 1.5 225.926 1.5 171.526V1.5H510.5Z" fill="#FCD6B2" stroke="#723D46" stroke-width="3"/>
<ellipse cx="118" cy="137.549" rx="33" ry="58.9498" fill="#432D31"/>
<ellipse cx="109.049" cy="98.0689" rx="13.8804" ry="7.32064" transform="rotate(-54.2633 109.049 98.0689)" fill="white"/>
<ellipse cx="392" cy="137.549" rx="33" ry="58.9498" fill="#432D31"/>
<ellipse cx="383.049" cy="98.0689" rx="13.8804" ry="7.32064" transform="rotate(-54.2633 383.049 98.0689)" fill="white"/>
<path d="M65.1633 485.659L159.972 272.713C160.293 271.991 161.009 271.526 161.799 271.526H352.144C352.963 271.526 353.699 272.025 354.002 272.786L438.891 485.753C438.963 485.934 439.006 486.094 439.022 486.289C439.353 490.351 443.145 540.296 430.5 551.026C421.651 558.535 403.993 563.368 401.739 563.964C401.578 564.007 401.416 564.026 401.249 564.026H369V684.026C369 695.072 360.046 704.026 349 704.026H254.75H160.5C149.454 704.026 140.5 695.072 140.5 684.026V564.026H102.71C102.57 564.026 102.437 564.013 102.3 563.983C100.199 563.513 82.0418 559.269 73.9999 551.026C64.2705 541.054 64.9092 491.155 64.9928 486.392C64.9975 486.127 65.0554 485.902 65.1633 485.659Z" fill="#FCD6B2"/>
<path d="M140.5 564.026H102.71C102.57 564.026 102.437 564.013 102.3 563.983C100.199 563.513 82.0418 559.269 73.9999 551.026C64.2705 541.054 64.9092 491.155 64.9928 486.392C64.9975 486.127 65.0554 485.902 65.1633 485.659L159.972 272.713C160.293 271.991 161.009 271.526 161.799 271.526H352.144C352.963 271.526 353.699 272.025 354.002 272.786L438.891 485.753C438.963 485.934 439.006 486.094 439.022 486.289C439.353 490.351 443.145 540.296 430.5 551.026C421.651 558.535 403.993 563.368 401.739 563.964C401.578 564.007 401.416 564.026 401.249 564.026H369M140.5 564.026V684.026C140.5 695.072 149.454 704.026 160.5 704.026H254.75M140.5 564.026H254.75M369 564.026V684.026C369 695.072 360.046 704.026 349 704.026H254.75M369 564.026H254.75M254.75 704.026V564.026" stroke="#723D46" stroke-width="3" stroke-linecap="round"/>
</svg>
