<svg width="704" height="627" viewBox="0 0 704 627" fill="none" xmlns="http://www.w3.org/2000/svg">
<path d="M394.411 252.276C373.653 248.398 357.748 217.243 352.926 206.727C352.255 205.265 350.185 205.061 349.233 206.358C342.738 215.212 322.783 239.979 303.911 238.276C287.453 236.79 271.994 215.187 266.512 206.681C265.617 205.293 263.44 205.429 262.707 206.909C258.688 215.025 247.931 234.234 234.411 238.276C216.955 243.494 194.301 223.602 185.567 215.029C184.254 213.741 181.844 214.681 181.729 216.516C181.099 226.614 178.3 248.139 165.911 252.276C156.093 255.554 142.769 247.069 135.907 241.908C134.388 240.766 131.997 242.109 132.227 243.995C133.227 252.185 134.442 267.405 131.411 277.776C126.548 294.413 106.679 312.515 100.959 317.464C100.11 318.198 99.9955 319.466 100.703 320.337C106.803 327.845 132.381 360.936 131.411 386.776C130.929 399.631 123.622 417.427 121.191 423.021C120.761 424.009 121.156 425.156 122.1 425.677C128.56 429.236 151.374 442.874 151.911 458.276C152.32 470.014 139.809 483.356 134.138 488.783C132.989 489.883 133.412 491.907 134.91 492.442C143.54 495.525 165.204 504.605 165.911 518.276C166.712 533.751 140.136 544.962 133.1 547.653C132.139 548.021 131.586 549.029 131.789 550.038C132.871 555.409 135.635 571.812 131.411 581.776C125.174 596.487 99.4111 607.276 99.4111 607.276C99.4111 607.276 140.037 619.11 165.911 615.276C186.466 612.229 214.308 596.834 220.262 593.439C220.97 593.035 221.835 593.1 222.491 593.584C227.408 597.218 248.148 611.997 264.411 615.276C295.869 621.618 339.464 590.752 349.359 583.344C350.412 582.556 351.931 582.947 352.5 584.133C356.495 592.465 371.072 620.165 389.411 622.776C411.605 625.935 433.955 591.589 438.902 583.472C439.476 582.531 440.679 582.204 441.657 582.714C448.075 586.063 470.767 597.002 485.911 592.776C498.464 589.272 510.873 573.94 515.749 567.328C516.698 566.041 518.765 566.224 519.452 567.668C524.099 577.429 538.804 605.037 557.411 607.276C577.804 609.729 603.411 581.776 603.411 581.776C603.411 581.776 565.918 568.806 557.411 548.276C549.782 529.864 563.037 499.516 566.24 492.675C566.63 491.84 566.43 490.863 565.747 490.244C561.364 486.265 546.049 471.487 544.911 458.276C543.088 437.101 577.651 419.602 587.707 414.974C588.999 414.379 589.329 412.663 588.366 411.615C583.076 405.862 569.192 389.66 566.911 375.776C563.421 354.531 584.962 325.705 589.56 319.842C590.075 319.185 590.139 318.305 589.721 317.582C586.745 312.432 574.806 291.752 566.911 277.776C559.637 264.897 549.112 245.878 545.887 240.042C545.347 239.066 544.133 238.714 543.148 239.237C536.35 242.848 511.356 255.251 493.911 252.276C477.159 249.418 458.163 230.809 452.855 225.306C452.057 224.479 450.734 224.455 449.902 225.248C443.227 231.613 415.749 256.262 394.411 252.276Z" fill="#5B1111"/>
<path d="M349.233 206.358C350.185 205.061 352.255 205.265 352.926 206.727C357.748 217.243 373.653 248.398 394.411 252.276C415.749 256.262 443.227 231.613 449.902 225.248C450.734 224.455 452.057 224.479 452.855 225.306C458.163 230.809 477.159 249.418 493.911 252.276C511.356 255.251 536.35 242.848 543.148 239.237C544.133 238.714 545.347 239.066 545.887 240.042C549.112 245.878 559.637 264.897 566.911 277.776C574.806 291.752 586.745 312.432 589.721 317.582C590.139 318.305 590.075 319.185 589.56 319.842C584.962 325.705 563.421 354.531 566.911 375.776C569.192 389.66 583.076 405.862 588.366 411.615C589.329 412.663 588.999 414.379 587.707 414.974C577.651 419.602 543.088 437.101 544.911 458.276C546.049 471.487 561.364 486.265 565.747 490.244C566.43 490.863 566.63 491.84 566.24 492.675C563.037 499.516 549.782 529.864 557.411 548.276C565.918 568.806 603.411 581.776 603.411 581.776C603.411 581.776 633.383 597.525 652.411 592.776C672.789 587.69 687.416 576.792 691.911 556.276C695.619 539.353 679.389 515.612 675.318 509.999C674.789 509.269 674.777 508.288 675.301 507.555C678.732 502.759 690.957 484.776 691.911 470.776C693.034 454.303 679.314 432.187 675.423 426.278C674.853 425.413 675.004 424.271 675.774 423.578C680.875 418.988 698.615 402.009 699.911 386.776C701.43 368.915 680.878 347.195 675.62 341.954C674.927 341.264 674.797 340.191 675.318 339.364C679.023 333.473 692.774 310.371 691.911 293.276C691.168 278.558 679.144 259.38 675.47 253.838C674.883 252.953 675.045 251.769 675.854 251.081C681.585 246.214 702.312 227.367 699.911 211.276C698.026 198.641 681.673 186.293 676.192 182.476C675.236 181.81 675.002 180.479 675.67 179.523C679.853 173.547 692.959 153.495 691.911 138.276C690.254 114.207 676.077 95.4655 652.411 90.7756C636.163 87.5556 614.225 101.909 606.365 107.567C605.075 108.496 603.195 107.711 602.996 106.134C601.266 92.3986 593.657 44.2254 571.5 38.6736C561.647 36.2047 535.737 53.5036 529.02 58.1484C528.118 58.7725 526.889 58.5617 526.242 57.6758L518.003 46.4019C517.942 46.3178 517.884 46.2488 517.81 46.1756C516.068 44.4585 492.126 21.111 472.5 15.1736C454.033 9.58693 428.609 27.505 422.079 32.4467C421.192 33.1177 419.943 32.9846 419.221 32.1385C414.115 26.1513 394.588 4.6025 376.5 2.67352C362.146 1.14274 334.513 19.8824 328.273 24.2672C327.514 24.8003 326.519 24.7646 325.795 24.1845C318.813 18.5851 282.754 -8.49486 251.5 2.67352C226.824 11.4911 213.25 53.3913 209.799 65.4947C209.379 66.9671 207.52 67.5049 206.36 66.5055C197.805 59.1347 169.677 36.8781 151.911 46.2756C137.939 53.666 133.062 79.2134 131.788 87.8763C131.582 89.273 130.061 90.0968 128.783 89.4978C120.677 85.6992 95.6054 75.0281 78.9111 79.7756C42.899 90.0165 57.3781 168.73 59.6356 179.947C59.8019 180.773 59.4423 181.572 58.7399 182.038C51.602 186.77 14.2921 212.757 15.4111 238.276C16.0527 252.907 29.5058 271.418 33.3773 276.458C33.9718 277.232 33.9523 278.303 33.3272 279.052C26.905 286.752 -5.49282 327.537 5.91107 353.776C12.4575 368.838 34.5956 381.769 41.6982 385.614C42.829 386.226 43.1624 387.702 42.3759 388.719C34.8124 398.502 2.39097 442.984 15.4111 470.776C21.638 484.067 39.8109 496.854 46.4478 501.207C47.6239 501.978 47.7355 503.703 46.6557 504.604C38.5526 511.367 11.5895 535.641 15.4111 556.276C18.9344 575.3 32.5411 582.463 48.9111 592.776C66.2715 603.713 99.4111 607.276 99.4111 607.276C99.4111 607.276 125.174 596.487 131.411 581.776C135.635 571.812 132.871 555.409 131.789 550.038C131.586 549.029 132.139 548.021 133.1 547.653C140.136 544.962 166.712 533.751 165.911 518.276C165.204 504.605 143.54 495.525 134.91 492.442C133.412 491.907 132.989 489.883 134.138 488.783C139.809 483.356 152.32 470.014 151.911 458.276C151.374 442.874 128.56 429.236 122.1 425.677C121.156 425.156 120.761 424.009 121.191 423.021C123.622 417.427 130.929 399.631 131.411 386.776C132.381 360.936 106.803 327.845 100.703 320.337C99.9955 319.466 100.11 318.198 100.959 317.464C106.679 312.515 126.548 294.413 131.411 277.776C134.442 267.405 133.227 252.185 132.227 243.995C131.997 242.109 134.388 240.766 135.907 241.908C142.769 247.069 156.093 255.554 165.911 252.276C178.3 248.139 181.099 226.614 181.729 216.516C181.844 214.681 184.254 213.741 185.567 215.029C194.301 223.602 216.955 243.494 234.411 238.276C247.931 234.234 258.688 215.025 262.707 206.909C263.44 205.429 265.617 205.293 266.512 206.681C271.994 215.187 287.453 236.79 303.911 238.276C322.783 239.979 342.738 215.212 349.233 206.358Z" fill="#772525"/>
<path d="M603.411 581.776C603.411 581.776 565.918 568.806 557.411 548.276C549.782 529.864 563.037 499.516 566.24 492.675C566.63 491.84 566.43 490.863 565.747 490.244C561.364 486.265 546.049 471.487 544.911 458.276C543.088 437.101 577.651 419.602 587.707 414.974C588.999 414.379 589.329 412.663 588.366 411.615C583.076 405.862 569.192 389.66 566.911 375.776C563.421 354.531 584.962 325.705 589.56 319.842C590.075 319.185 590.139 318.305 589.721 317.582C586.745 312.432 574.806 291.752 566.911 277.776C559.637 264.897 549.112 245.878 545.887 240.042C545.347 239.066 544.133 238.714 543.148 239.237C536.35 242.848 511.356 255.251 493.911 252.276C477.159 249.418 458.163 230.809 452.855 225.306C452.057 224.479 450.734 224.455 449.902 225.248C443.227 231.613 415.749 256.262 394.411 252.276C373.653 248.398 357.748 217.243 352.926 206.727C352.255 205.265 350.185 205.061 349.233 206.358C342.738 215.212 322.783 239.979 303.911 238.276C287.453 236.79 271.994 215.187 266.512 206.681C265.617 205.293 263.44 205.429 262.707 206.909C258.688 215.025 247.931 234.234 234.411 238.276C216.955 243.494 194.301 223.602 185.567 215.029C184.254 213.741 181.844 214.681 181.729 216.516C181.099 226.614 178.3 248.139 165.911 252.276C156.093 255.554 142.769 247.069 135.907 241.908C134.388 240.766 131.997 242.109 132.227 243.995C133.227 252.185 134.442 267.405 131.411 277.776C126.548 294.413 106.679 312.515 100.959 317.464C100.11 318.198 99.9955 319.466 100.703 320.337C106.803 327.845 132.381 360.936 131.411 386.776C130.929 399.631 123.622 417.427 121.191 423.021C120.761 424.009 121.156 425.156 122.1 425.677C128.56 429.236 151.374 442.874 151.911 458.276C152.32 470.014 139.809 483.356 134.138 488.783C132.989 489.883 133.412 491.907 134.91 492.442C143.54 495.525 165.204 504.605 165.911 518.276C166.712 533.751 140.136 544.962 133.1 547.653C132.139 548.021 131.586 549.029 131.789 550.038C132.871 555.409 135.635 571.812 131.411 581.776C125.174 596.487 99.4111 607.276 99.4111 607.276M603.411 581.776C603.411 581.776 633.383 597.525 652.411 592.776C672.789 587.69 687.416 576.792 691.911 556.276C695.619 539.353 679.389 515.612 675.318 509.999C674.789 509.269 674.777 508.288 675.301 507.555C678.732 502.759 690.957 484.776 691.911 470.776C693.034 454.303 679.314 432.187 675.423 426.278C674.853 425.413 675.004 424.271 675.774 423.578C680.875 418.988 698.615 402.009 699.911 386.776C701.43 368.916 680.878 347.195 675.62 341.954C674.927 341.264 674.797 340.191 675.318 339.364C679.023 333.473 692.774 310.371 691.911 293.276C691.168 278.558 679.144 259.38 675.47 253.838C674.883 252.953 675.045 251.769 675.854 251.081C681.585 246.214 702.312 227.367 699.911 211.276C698.026 198.641 681.673 186.293 676.192 182.476C675.236 181.81 675.002 180.479 675.67 179.523C679.853 173.547 692.959 153.495 691.911 138.276C690.254 114.207 676.077 95.4655 652.411 90.7756C636.163 87.5556 614.225 101.909 606.365 107.567C605.075 108.496 603.195 107.711 602.996 106.134C601.266 92.3986 593.657 44.2254 571.5 38.6736C561.647 36.2047 535.737 53.5036 529.02 58.1484C528.118 58.7725 526.889 58.5617 526.242 57.6758L518.003 46.4019C517.942 46.3178 517.884 46.2488 517.81 46.1756C516.068 44.4585 492.126 21.111 472.5 15.1736C454.033 9.58693 428.609 27.505 422.079 32.4467C421.192 33.1177 419.943 32.9846 419.221 32.1385C414.115 26.1513 394.588 4.6025 376.5 2.67352C362.146 1.14274 334.513 19.8824 328.273 24.2672C327.514 24.8003 326.519 24.7646 325.795 24.1844C318.813 18.5851 282.754 -8.49486 251.5 2.67352C226.824 11.4911 213.25 53.3913 209.799 65.4947C209.379 66.9671 207.52 67.5049 206.36 66.5055C197.805 59.1347 169.677 36.8781 151.911 46.2756C137.939 53.666 133.062 79.2134 131.788 87.8763C131.582 89.273 130.061 90.0968 128.783 89.4978C120.677 85.6992 95.6054 75.0281 78.9111 79.7756C42.899 90.0165 57.3781 168.73 59.6356 179.947C59.8019 180.773 59.4424 181.572 58.7399 182.038C51.602 186.77 14.2921 212.757 15.4111 238.276C16.0527 252.907 29.5058 271.418 33.3773 276.458C33.9718 277.232 33.9523 278.303 33.3272 279.052C26.905 286.752 -5.49282 327.537 5.91107 353.776C12.4575 368.838 34.5956 381.769 41.6981 385.614C42.829 386.226 43.1624 387.702 42.3759 388.719C34.8124 398.502 2.39097 442.984 15.4111 470.776C21.638 484.067 39.8109 496.854 46.4478 501.207C47.6239 501.978 47.7355 503.703 46.6557 504.604C38.5526 511.367 11.5895 535.641 15.4111 556.276C18.9344 575.3 32.5411 582.463 48.9111 592.776C66.2715 603.713 99.4111 607.276 99.4111 607.276M603.411 581.776C603.411 581.776 577.804 609.729 557.411 607.276C538.804 605.037 524.099 577.429 519.452 567.668C518.765 566.224 516.698 566.041 515.749 567.328C510.873 573.94 498.464 589.272 485.911 592.776C470.767 597.002 448.075 586.063 441.657 582.714C440.679 582.204 439.476 582.531 438.902 583.472C433.955 591.589 411.605 625.935 389.411 622.776C371.072 620.165 356.495 592.465 352.5 584.133C351.931 582.947 350.412 582.556 349.359 583.344C339.464 590.752 295.869 621.618 264.411 615.276C248.148 611.997 227.408 597.218 222.491 593.584C221.835 593.1 220.97 593.035 220.262 593.439C214.308 596.834 186.466 612.229 165.911 615.276C140.037 619.11 99.4111 607.276 99.4111 607.276" stroke="#5B1111" stroke-width="7" stroke-linecap="round"/>
</svg>
