<svg width="599" height="321" viewBox="0 0 599 321" fill="none" xmlns="http://www.w3.org/2000/svg">
<path d="M351.061 7.99023C344.963 20.1815 340.672 29.7094 338.236 44.2627C337.778 47.0034 339.893 49.5 342.67 49.5H399C507.524 49.5 595.5 137.476 595.5 246V261C595.5 292.204 570.204 317.5 539 317.5H60C28.7959 317.5 3.5 292.204 3.5 261V246C3.5 137.476 91.476 49.5 200 49.5H278C282.058 49.4999 284.078 44.5044 281.04 41.7119C274.41 35.6184 268.552 31.4405 261.881 27.5791C275.529 29.9851 286.824 33.7569 302.737 41.7783C304.537 42.6858 306.737 42.2853 308.101 40.7949C322.389 25.1818 333.3 17.3612 351.061 7.99023Z" fill="#FF8989" stroke="#D74F4F" stroke-width="7"/>
<path d="M169.491 222.359C169.491 221.225 167.902 220.967 167.543 222.042L154.521 261H169.491V222.359Z" fill="#D74F4F"/>
<path d="M437.928 261L420.227 220.587C419.793 219.595 418.311 219.906 418.311 220.989V261H437.928Z" fill="#D74F4F"/>
<path d="M93.09 183L43.5015 259.456C43.07 260.121 43.5475 261 44.3405 261H154.521M530.332 183L566.819 259.57C567.135 260.233 566.651 261 565.916 261H437.928M154.521 261L167.543 222.042C167.902 220.967 169.491 221.225 169.491 222.359V261M154.521 261H169.491M169.491 261H418.311M437.928 261L420.227 220.587C419.793 219.595 418.311 219.906 418.311 220.989V261M437.928 261H418.311" stroke="#D74F4F" stroke-width="7" stroke-linecap="round"/>
</svg>
