<svg width="599" height="507" viewBox="0 0 599 507" fill="none" xmlns="http://www.w3.org/2000/svg">
<path d="M200 1.5H399C508.629 1.50002 597.5 90.3715 597.5 200V497C597.5 501.694 593.694 505.5 589 505.5H10C5.30558 505.5 1.5 501.694 1.5 497V200C1.5 90.3715 90.3715 1.5 200 1.5Z" fill="#A82424" stroke="#910909" stroke-width="3"/>
<path d="M169.491 176.359C169.491 175.225 167.902 174.967 167.543 176.042L154.521 215H169.491V176.359Z" fill="#910909"/>
<path d="M437.928 215L420.227 174.587C419.793 173.595 418.311 173.906 418.311 174.989V215H437.928Z" fill="#910909"/>
<path d="M93.09 137L43.5015 213.456C43.07 214.121 43.5475 215 44.3405 215H154.521M530.332 137L566.819 213.57C567.135 214.233 566.651 215 565.916 215H437.928M154.521 215L167.543 176.042C167.902 174.967 169.491 175.225 169.491 176.359V215M154.521 215H169.491M169.491 215H418.311M437.928 215L420.227 174.587C419.793 173.595 418.311 173.906 418.311 174.989V215M437.928 215H418.311" stroke="#910909" stroke-width="7" stroke-linecap="round"/>
<rect x="49" y="217" width="512" height="290" fill="#910909"/>
</svg>
