<svg width="393" height="269" viewBox="0 0 393 269" fill="none" xmlns="http://www.w3.org/2000/svg">
<path d="M66.1924 1.5H322.834C323.895 1.5 324.92 2.00083 325.583 2.8418C352.303 36.7562 369.336 65.636 379.384 98.376C389.436 131.131 392.532 167.859 391.212 217.521C391.161 219.417 389.602 220.942 387.726 220.942H352.547C348.957 220.942 346.047 223.853 346.047 227.442V264C346.047 265.933 344.48 267.5 342.547 267.5H50.3955C48.4627 267.5 46.8955 265.933 46.8955 264V227.442C46.8955 223.853 43.9854 220.942 40.3955 220.942H6.08105C4.24159 220.942 2.70024 219.479 2.59766 217.625C0.00778779 170.774 1.71672 135.258 10.7881 102.403C19.856 69.5614 36.3124 39.2681 63.3848 2.91895C64.0446 2.03308 65.0994 1.5 66.1924 1.5Z" fill="#C2CCA3" stroke="#723D46" stroke-width="3"/>
</svg>
